<?xml version="1.0" encoding="utf-8"?>
<!-- Generator: Adobe Illustrator 16.0.0, SVG Export Plug-In . SVG Version: 6.00 Build 0)  -->
<!DOCTYPE svg PUBLIC "-//W3C//DTD SVG 1.1//EN" "http://www.w3.org/Graphics/SVG/1.1/DTD/svg11.dtd">
<svg version="1.1" id="logos" xmlns="http://www.w3.org/2000/svg" xmlns:xlink="http://www.w3.org/1999/xlink" x="0px" y="0px"
	 width="1000px" height="328.711px" viewBox="-202.36 256.59 1000 328.711" enable-background="new -202.36 256.59 1000 328.711"
	 xml:space="preserve">
<g>
	<g>
		<path fill="#F48256" d="M-87.54,268.186c2.194-0.23,4.363,0.106,6.508,0.978c-14.241,19.41-16.797,55.921-17.24,69.776h9.828
			c0.542-18.055,4.093-49.216,15.334-64.065c13.132,13.617,21.58,43.389,24.217,64.065h9.936
			c-2.671-22.443-11.826-54.68-26.765-70.631c2.16-1.126,4.52-1.783,7.1-1.792c4.594-0.025,8.851,2.17,12.984,6.689
			c14.438,15.746,20.832,52.19,22.22,65.741h9.853c-1.183-15.219-7.642-49.684-21.621-68.568
			c-6.804-9.196-14.709-13.831-23.485-13.79c-5.868,0.033-10.847,1.931-15.112,5.104c-4.717-2.761-9.647-3.904-14.742-3.386
			c-26.182,2.671-33.266,43.373-34.21,80.624h9.86C-111.765,295.353-102.677,269.73-87.54,268.186z"/>
		
			<linearGradient id="SVGID_1_" gradientUnits="userSpaceOnUse" x1="-35.3337" y1="847.0166" x2="8.9253" y2="794.2707" gradientTransform="matrix(4.7622 0 0 -4.7622 -8.8857 4357.3657)">
			<stop  offset="0" style="stop-color:#00BFF2"/>
			<stop  offset="1" style="stop-color:#007DC4"/>
		</linearGradient>
		<path fill="url(#SVGID_1_)" d="M51.666,338.495c-0.065-1.232-1.2-2.202-2.563-2.185l-26.19-3.764
			c-0.238-0.065-0.484-0.107-0.748-0.107c-10.165-0.024-47.086-0.115-104.7-0.115c-57.779,0-94.842,0.698-104.915,0.913
			c-1.571,0.041-2.843,1.15-2.926,2.572c-0.591,9.918-2.885,48.805-6.122,108.571c-3.427,63.201-5.375,97.684-5.859,106.805
			c-0.065,1.307,0.952,2.44,2.375,2.654l104.249,15.803l103.05,15.621c0.854,0.132,1.675-0.09,2.341-0.525v0.018l50.917-32.551
			c1.348-0.913,2.113-2.376,2.031-3.904L51.666,338.495z"/>
		<g>
			<g>
				<g>
					<g>
						<path fill="#FFFFFF" d="M-53.141,508.264h-3.633v-1.273h8.687v1.273h-3.6v9.96h-1.446v-9.96H-53.141z"/>
						<path fill="#FFFFFF" d="M-42.211,518.224l-3.017-9.13v9.13h-1.454V506.99h2.014l3.18,9.573l3.197-9.573h1.997v11.233h-1.439
							v-9.13l-3.015,9.13H-42.211z"/>
					</g>
				</g>
			</g>
			<g>
				<path fill="#FFFFFF" d="M-112.505,381.663v121.054l27.405,8.695V409.899c0-4.782,2.137-7.956,5.556-6.87
					c4.469,1.24,5.34,5.654,5.34,10.378v40.538c17.052,8.259,30.487-0.008,30.487-21.786c0-22.269-7.871-32.188-31.045-40.158
					C-83.892,388.951-100.838,383.808-112.505,381.663"/>
				<path fill="#FFFFFF" d="M-79.881,493.711l44.021-15.681c4.979-1.84,5.745-4.354,1.71-5.678
					c-4.093-1.332-11.398-0.944-16.437,0.854l-29.303,10.338v-16.484l1.684-0.56c0,0,8.481-3.008,20.406-4.297
					c11.907-1.308,26.51,0.164,37.981,4.494c12.927,4.103,14.373,10.092,11.11,14.267c-3.32,4.125-11.365,7.107-11.365,7.107
					l-59.816,21.49v-15.852H-79.881z"/>
				<path fill="#FFFFFF" d="M-162.724,492.043c-13.262-3.698-15.473-11.498-9.425-16c5.571-4.134,15.079-7.225,15.079-7.225
					l39.264-14.002v15.933l-28.234,10.116c-5.005,1.785-5.745,4.308-1.719,5.631c4.093,1.371,11.375,0.994,16.378-0.854
					l13.575-4.899v14.227c-0.878,0.155-1.848,0.303-2.735,0.451C-134.077,497.68-148.491,496.759-162.724,492.043"/>
			</g>
		</g>
	</g>
	<g>
		<g>
			<path fill="#231F20" d="M197.168,325.166l-38.993-0.024c-0.172,0-0.296,0.123-0.296,0.279v91.257
				c0,0.148,0.125,0.289,0.296,0.289h15.795c0.164,0,0.295-0.14,0.295-0.289V335.34c0-0.074,0.042-0.14,0.108-0.14l18.07-0.033
				c6.599,0,10.215,6.64,10.215,18.704c0,12.063-3.617,18.695-10.224,18.695h-10.862c-0.157,0-0.288,0.132-0.288,0.28v9.466
				c0,0.157,0.131,0.288,0.288,0.288h15.604c5.465,0,10.856-2.531,14.775-6.944c4.627-5.193,7.076-12.704,7.076-21.71
				C219.019,336.466,210.432,325.166,197.168,325.166"/>
			<path fill="#231F20" d="M244.823,325.142h-15.793c-0.166,0-0.288,0.123-0.288,0.279v91.257c0,0.148,0.123,0.289,0.288,0.289
				h15.793c0.157,0,0.279-0.14,0.279-0.289v-91.257C245.111,325.264,244.988,325.142,244.823,325.142"/>
			<path fill="#231F20" d="M313.842,347.346c0-0.156-0.122-0.28-0.271-0.28h-28.228c-25.228,0-28.465,18.597-28.465,34.876
				l0.025,14.093c0,12.13,7.519,20.932,17.915,20.932h15.358c0.155,0,0.28-0.14,0.28-0.289v-9.458c0-0.165-0.131-0.297-0.28-0.297
				l-10.987,0.025c-2.531-0.057-5.925-1.142-5.925-9.796v-15.21c-0.008-10.133,0.929-16.559,3-20.257
				c2.277-4.06,5.868-4.61,9.08-4.61l12.064,0.008c0.057,0,0.09,0.058,0.09,0.14l-0.017,59.463c0,0.148,0.123,0.286,0.28,0.286
				h15.81c0.149,0,0.271-0.138,0.271-0.286l-0.008-68.905v-0.436H313.842z"/>
			<path fill="#231F20" d="M427.64,363.362l-7.791-0.591c-5.834-0.51-10.189-3.748-10.189-13.347c0-11.2,5.056-14.224,11.718-14.224
				h21.549c0.146,0,0.263-0.123,0.263-0.28v-9.5c0-0.157-0.116-0.279-0.263-0.279h-0.445h-0.023l-23.331,0.008
				c-14.701,0-25.194,8.636-25.194,25.877v0.715c0,13.65,8.373,23.445,20.849,24.382l7.765,0.591
				c5.892,0.444,9.549,5.719,9.549,13.757v2.267c0,5.039-1.232,14.177-11.996,14.177h-21.951h-0.418c-0.165,0-0.28,0.146-0.28,0.295
				v9.458c0,0.148,0.123,0.288,0.28,0.288h27.774c8.581,0,22.953-3.485,22.953-26.831c0-8.399-1.965-15.096-5.836-19.887
				C439.284,366.131,434.378,363.88,427.64,363.362"/>
			<path fill="#231F20" d="M557.224,347.346c0-0.156-0.132-0.28-0.287-0.28h-28.219c-25.236,0-28.482,18.597-28.482,34.876
				l0.024,14.093c0,12.13,7.535,20.932,17.914,20.932h15.35c0.165,0,0.297-0.14,0.297-0.289v-9.458c0-0.165-0.14-0.297-0.297-0.297
				l-10.97,0.025c-2.547-0.057-5.925-1.142-5.934-9.796v-15.21c-0.008-10.133,0.937-16.559,3.017-20.257
				c2.269-4.06,5.876-4.61,9.081-4.61l12.055,0.008c0.041,0,0.099,0.058,0.099,0.14l-0.017,59.463c0,0.148,0.123,0.286,0.271,0.286
				h15.812c0.164,0,0.287-0.138,0.287-0.286V347.346L557.224,347.346z"/>
			<path fill="#231F20" d="M493.628,347.066h-17.101c-0.049,0-0.1-0.049-0.1-0.106l-0.023-0.058l0.023-11.422
				c0-0.148-0.131-0.28-0.28-0.28H460.33c-0.141,0-0.28,0.131-0.28,0.28v60.572c0,12.121,7.553,20.915,17.94,20.915h11.324
				c0.155,0,0.277-0.14,0.277-0.289v-9.458c0-0.157-0.122-0.297-0.277-0.297h-6.962c-1.766-0.023-5.948-0.114-5.948-9.03v-40.735
				c0-0.049,0.057-0.09,0.123-0.09c5.217,0.016,17.101,0,17.101,0c0.157,0,0.28-0.14,0.28-0.288v-9.425
				C493.908,347.198,493.785,347.066,493.628,347.066"/>
			<path fill="#231F20" d="M604.057,347.066h-17.108c-0.058,0-0.108-0.049-0.108-0.106l-0.015-0.058l0.015-11.422
				c0-0.148-0.123-0.28-0.286-0.28h-15.795c-0.166,0-0.297,0.131-0.297,0.28v60.572c0,12.121,7.554,20.915,17.94,20.915h11.333
				c0.154,0,0.277-0.14,0.277-0.289v-9.458c0-0.157-0.123-0.297-0.277-0.297h-6.954c-1.773-0.023-5.948-0.114-5.948-9.03v-40.735
				c0-0.049,0.041-0.09,0.115-0.09c5.217,0.016,17.108,0,17.108,0c0.155,0,0.28-0.14,0.28-0.288v-9.425
				C604.337,347.198,604.206,347.066,604.057,347.066"/>
			<path fill="#231F20" d="M630.205,347.066h-15.803c-0.164,0-0.295,0.132-0.295,0.28v69.332c0,0.148,0.14,0.289,0.295,0.289h15.803
				c0.14,0,0.28-0.14,0.28-0.289v-69.332C630.486,347.198,630.345,347.066,630.205,347.066"/>
			<path fill="#231F20" d="M630.205,325.142h-15.803c-0.164,0-0.295,0.123-0.295,0.279v13.239c0,0.156,0.14,0.28,0.295,0.28h15.803
				c0.14,0,0.28-0.124,0.28-0.28v-13.239C630.486,325.264,630.345,325.142,630.205,325.142"/>
			<path fill="#231F20" d="M739.541,347.066h-28.228c-0.141,0-0.278,0.132-0.278,0.28l-0.009,69.332c0,0.148,0.14,0.289,0.287,0.289
				h15.803c0.156,0,0.288-0.14,0.288-0.289l-0.042-59.488c0-0.049,0.065-0.107,0.123-0.107l12.056-0.008
				c3.222,0,6.813,0.509,9.081,4.265c2.063,3.419,3.031,9.377,3.031,18.777c0.009,0.402-0.016,36.561-0.016,36.561
				c0,0.148,0.139,0.289,0.296,0.289h15.794c0.155,0,0.28-0.14,0.28-0.289v-34.744C767.991,365.663,764.769,347.066,739.541,347.066
				"/>
			<path fill="#231F20" d="M670.784,347.066c-26.403,0-29.798,18.696-29.798,34.966c0,16.297,3.395,34.983,29.789,34.983
				c26.419,0,29.807-18.687,29.807-34.983C700.582,365.762,697.195,347.066,670.784,347.066 M680.817,402.363
				c-2.497,4.076-6.474,4.643-10.032,4.643c-3.543,0-7.52-0.558-10.034-4.643c-2.276-3.706-3.319-10.158-3.319-20.331v-0.075
				c0-12.038,1.479-18.867,4.814-22.138c1.948-1.915,4.513-2.744,8.547-2.744s6.6,0.83,8.563,2.744
				c3.328,3.271,4.816,10.116,4.816,22.212C684.154,392.205,683.111,398.665,680.817,402.363"/>
			<path fill="#231F20" d="M322.758,347.066c-0.154,0-0.246,0.124-0.196,0.271l23.428,68.708c0.049,0.14,0.049,0.388-0.009,0.534
				l-13.163,34.064c-0.066,0.138,0.017,0.27,0.171,0.27h13.749c0.155,0,0.338-0.132,0.386-0.27l41.212-103.313
				c0.058-0.148-0.025-0.271-0.188-0.271h-14.989c-0.165,0-0.346,0.123-0.402,0.271L355.3,392.485c-0.058,0.148-0.148,0.148-0.206,0
				l-15.366-45.155c-0.058-0.148-0.223-0.271-0.386-0.271h-16.584V347.066z"/>
			<path fill="#231F20" d="M207.786,471.646c-6.427-2.579-13.37-3.87-20.183-3.87c-8.744,0-18.532,3.345-18.532,14.026
				c0,8.235,4.882,12.739,19.172,18.27c17.355,6.688,26.362,13.632,26.362,27.923c0,18.137-15.687,25.344-30.865,25.344
				c-8.102,0-18.531-1.8-27.151-5.661l2.834-9.656c8.358,4.117,17.355,5.925,24.563,5.925c11.07,0,19.418-4.891,19.418-15.178
				c0-9.394-8.094-14.159-21.981-19.814c-15.689-6.303-23.552-14.158-23.552-26.377c0-16.979,15.967-24.186,29.854-24.186
				c8.11,0,16.206,1.282,22.763,3.854L207.786,471.646z"/>
			<path fill="#231F20" d="M217.811,483.856h12.088v-17.115h10.947v17.115h15.704v8.621h-15.704v40.661
				c0,9.253,0.896,10.938,8.62,10.938c2.95,0,4.881-0.263,7.199-0.518v8.233c-2.449,0.386-6.697,0.903-10.296,0.903
				c-14.15,0-16.469-6.819-16.469-18.908v-41.303h-12.088V483.856z"/>
			<path fill="#231F20" d="M291.902,553.338c-19.426,0-31.507-13.509-31.507-35.64c0-22.13,12.081-35.386,31.507-35.386
				c19.427,0,31.515,13.247,31.515,35.386C323.416,539.829,311.328,553.338,291.902,553.338 M291.902,490.941
				c-14.152,0-20.577,11.062-20.577,26.757c0,15.818,6.697,27.019,20.577,27.019c14.15,0,20.586-11.192,20.586-27.019
				C312.488,502.003,306.052,490.941,291.902,490.941"/>
			<path fill="#231F20" d="M365.078,491.327c-1.536-0.255-3.476-0.386-5.661-0.386c-8.991,0-16.204,5.275-16.204,21.094v39.767
				h-10.931v-67.937h10.545v9.139h0.137c3.338-7.207,8.999-10.676,17.743-10.676c1.166,0,2.967,0,4.897,0.265L365.078,491.327z"/>
			<path fill="#231F20" d="M375.623,520.788c0.771,14.545,9.656,23.929,24.052,23.929c6.304,0,12.992-1.157,18.277-3.336
				l1.782,8.358c-5.653,2.448-13.238,3.605-20.313,3.605c-22.516,0-34.343-15.185-34.343-35.385
				c0-20.585,11.71-35.639,30.619-35.639c19.041,0,28.171,13.122,28.171,33.199v5.275h-48.245V520.788z M375.623,512.167h38.335
				v-0.518c0-12.992-7.33-20.708-18.137-20.708C383.602,490.941,376.788,499.694,375.623,512.167"/>
			<g>
				<path d="M778.905,406.077h-4.043v-1.397h9.662v1.397h-4.018v10.896h-1.602V406.077z"/>
				<path d="M791.057,416.973l-3.368-9.991v9.991h-1.61V404.68h2.233l3.543,10.47l3.559-10.47h2.227v12.293h-1.603v-9.991
					l-3.36,9.991H791.057z"/>
			</g>
		</g>
	</g>
</g>
</svg>
